<svg width="40" height="25" viewBox="0 0 40 25" fill="none" xmlns="http://www.w3.org/2000/svg">
<path d="M27.5139 10.7143C30.4526 10.7143 32.807 8.32143 32.807 5.35714C32.807 2.39286 30.4526 0 27.5139 0C24.5753 0 22.2031 2.39286 22.2031 5.35714C22.2031 8.32143 24.5753 10.7143 27.5139 10.7143ZM13.3518 10.7143C16.2905 10.7143 18.6449 8.32143 18.6449 5.35714C18.6449 2.39286 16.2905 0 13.3518 0C10.4132 0 8.04102 2.39286 8.04102 5.35714C8.04102 8.32143 10.4132 10.7143 13.3518 10.7143ZM13.3518 14.2857C9.2271 14.2857 0.959961 16.375 0.959961 20.5357V25H25.7437V20.5357C25.7437 16.375 17.4765 14.2857 13.3518 14.2857ZM27.5139 14.2857C27.0006 14.2857 26.4164 14.3214 25.7968 14.375C27.8503 15.875 29.2842 17.8929 29.2842 20.5357V25H39.9058V20.5357C39.9058 16.375 31.6387 14.2857 27.5139 14.2857Z" fill="white"/>
</svg>
