<svg width="18" height="18" viewBox="0 0 18 18" fill="none" xmlns="http://www.w3.org/2000/svg">
<path d="M15.3535 2.64655C13.5179 0.813138 10.9165 -0.244168 8.0561 0.0482783C3.92313 0.464452 0.522155 3.81634 0.0604336 7.94434C-0.558949 13.3996 3.66411 18 8.9908 18C12.5832 18 15.6689 15.8966 17.1103 12.8709C17.4707 12.1173 16.9302 11.2512 16.0968 11.2512C15.6801 11.2512 15.286 11.4762 15.1058 11.8474C13.8332 14.5806 10.7814 16.3128 7.44798 15.5704C4.94792 15.0193 2.93212 12.9834 2.40283 10.4864C1.45686 6.12217 4.779 2.25288 8.9908 2.25288C10.8602 2.25288 12.5269 3.02898 13.7432 4.25501L12.0427 5.95345C11.3332 6.66207 11.8287 7.87685 12.831 7.87685H16.8738C17.4932 7.87685 18 7.37069 18 6.75205V2.71404C18 1.71297 16.7838 1.20682 16.0743 1.91544L15.3535 2.64655Z" fill="white"/>
</svg>
