<svg width="41" height="41" viewBox="0 0 41 41" fill="none" xmlns="http://www.w3.org/2000/svg">
<circle cx="20.5" cy="20.5" r="20.5" fill="#F2F2F2"/>
<path d="M28.1492 22.0298H22.0298V28.1492C22.0298 28.8224 21.4791 29.3731 20.8059 29.3731C20.1328 29.3731 19.5821 28.8224 19.5821 28.1492V22.0298H13.4627C12.7895 22.0298 12.2388 21.4791 12.2388 20.8059C12.2388 20.1328 12.7895 19.5821 13.4627 19.5821H19.5821V13.4627C19.5821 12.7895 20.1328 12.2388 20.8059 12.2388C21.4791 12.2388 22.0298 12.7895 22.0298 13.4627V19.5821H28.1492C28.8224 19.5821 29.3731 20.1328 29.3731 20.8059C29.3731 21.4791 28.8224 22.0298 28.1492 22.0298Z" fill="#8200C6"/>
</svg>
