<svg width="21" height="25" viewBox="0 0 21 25" fill="none" xmlns="http://www.w3.org/2000/svg">
<path d="M20.4575 8.6861C20.4575 6.69769 18.8398 5.07999 16.8513 5.07999C15.4801 5.07999 14.2855 5.84941 13.6757 6.97902C13.1305 5.96867 12.117 5.24753 10.928 5.10622V3.90874C11.6305 4.29045 12.4274 4.49651 13.2333 4.49657C13.2334 4.49657 13.2335 4.49657 13.2335 4.49657C13.6681 4.49657 14.1031 4.43777 14.5267 4.32183C15.9997 3.91845 17.17 2.88407 17.7371 1.48391C17.8098 1.30451 17.7534 1.09877 17.5996 0.981491C16.7693 0.348551 15.7341 0 14.6842 0C14.2496 0 13.8145 0.0587983 13.3911 0.174732C12.4038 0.445118 11.5528 0.999303 10.928 1.75681V0.970923C10.928 0.733906 10.7358 0.541738 10.4988 0.541738C10.2618 0.541738 10.0696 0.733906 10.0696 0.970923V5.1066C8.88181 5.24866 7.86947 5.96947 7.32462 6.97902C6.71491 5.84941 5.52028 5.08004 4.14909 5.08004C2.16067 5.08004 0.542969 6.69769 0.542969 8.68616C0.542969 10.6746 2.16067 12.2923 4.14909 12.2923C4.50869 12.2923 4.8559 12.2387 5.1839 12.1403C4.29565 12.7977 3.71856 13.8526 3.71856 15.0401C3.71856 17.0285 5.33626 18.6462 7.32468 18.6462C7.68433 18.6462 8.03154 18.5926 8.35955 18.4942C7.4713 19.1516 6.89415 20.2065 6.89415 21.394C6.89404 23.3823 8.51175 25 10.5002 25C12.4886 25 14.1063 23.3824 14.1063 21.3939C14.1063 20.2064 13.5291 19.1515 12.6409 18.494C12.9689 18.5925 13.3161 18.6461 13.6757 18.6461C15.6641 18.6461 17.2819 17.0284 17.2819 15.04C17.2819 13.8525 16.7047 12.7976 15.8165 12.1402C16.1445 12.2386 16.4917 12.2922 16.8513 12.2922C18.8398 12.2923 20.4575 10.6746 20.4575 8.6861ZM13.6177 1.00258C13.9673 0.906867 14.3261 0.858369 14.6842 0.858369C15.4332 0.858369 16.1729 1.07398 16.8007 1.47065C16.2967 2.46352 15.4014 3.19238 14.2999 3.49399C13.9502 3.5897 13.5915 3.6382 13.2335 3.6382C13.2334 3.6382 13.2334 3.6382 13.2333 3.6382C12.4843 3.6382 11.7446 3.42253 11.1169 3.02597C11.621 2.03305 12.5163 1.30424 13.6177 1.00258ZM16.8513 5.93836C18.3664 5.93836 19.5991 7.17103 19.5991 8.6861C19.5991 10.2012 18.3664 11.4339 16.8513 11.4339C15.3542 11.4339 14.1337 10.2302 14.1049 8.73981C14.1052 8.72189 14.1063 8.70413 14.1063 8.68616C14.1063 8.66819 14.1051 8.65043 14.1049 8.63251C14.1337 7.14211 15.3542 5.93836 16.8513 5.93836ZM10.5002 5.93836C11.9973 5.93836 13.2177 7.14211 13.2465 8.6324C13.2462 8.65032 13.2452 8.66808 13.2452 8.68605C13.2452 8.70402 13.2463 8.72178 13.2465 8.7397C13.2177 10.2301 11.9972 11.4338 10.5002 11.4338C9.00306 11.4338 7.78256 10.23 7.75375 8.7397C7.75402 8.72178 7.75509 8.70402 7.75509 8.68605C7.75509 8.66808 7.75397 8.65032 7.75375 8.6324C7.78256 7.14211 9.00306 5.93836 10.5002 5.93836ZM11.535 12.1402C11.1085 12.456 10.7537 12.8632 10.5002 13.3329C10.2466 12.8631 9.89184 12.4559 9.46534 12.1402C9.79335 12.2387 10.1406 12.2923 10.5002 12.2923C10.8598 12.2923 11.207 12.2387 11.535 12.1402ZM1.40123 8.6861C1.40123 7.17103 2.6339 5.93836 4.14898 5.93836C5.64608 5.93836 6.86652 7.14211 6.89533 8.6324C6.89506 8.65032 6.89399 8.66808 6.89399 8.68605C6.89399 8.70402 6.89512 8.72178 6.89533 8.7397C6.86652 10.2301 5.64608 11.4338 4.14898 11.4338C2.6339 11.4339 1.40123 10.2012 1.40123 8.6861ZM7.32457 10.3932C7.57811 10.8629 7.93288 11.2702 8.35944 11.5859C8.03144 11.4875 7.68423 11.4339 7.32457 11.4339C6.96491 11.4339 6.6177 11.4875 6.2897 11.5859C6.71625 11.2702 7.07103 10.863 7.32457 10.3932ZM4.57682 15.04C4.57682 13.5249 5.80944 12.2923 7.32457 12.2923C8.82167 12.2923 10.0422 13.496 10.071 14.9863C10.0707 15.0042 10.0696 15.022 10.0696 15.04C10.0696 15.0579 10.0708 15.0757 10.071 15.0936C10.0422 16.584 8.82167 17.7877 7.32457 17.7877C5.80944 17.7877 4.57682 16.5551 4.57682 15.04ZM13.2479 21.3939C13.2479 22.909 12.0152 24.1416 10.5002 24.1416C8.98503 24.1416 7.75241 22.909 7.75241 21.3939C7.75241 19.8788 8.98508 18.6461 10.5002 18.6461C12.0152 18.6461 13.2479 19.8788 13.2479 21.3939ZM10.5002 17.7877C10.1406 17.7877 9.79335 17.8413 9.46534 17.9398C9.89184 17.624 10.2466 17.2168 10.5002 16.7471C10.7537 17.2168 11.1084 17.6241 11.535 17.9398C11.207 17.8414 10.8598 17.7877 10.5002 17.7877ZM16.4235 15.04C16.4235 16.5551 15.1908 17.7878 13.6757 17.7878C12.1786 17.7878 10.9582 16.584 10.9293 15.0937C10.9296 15.0758 10.9307 15.058 10.9307 15.0401C10.9307 15.0221 10.9296 15.0043 10.9293 14.9864C10.9582 13.4961 12.1786 12.2924 13.6757 12.2924C15.1909 12.2923 16.4235 13.5249 16.4235 15.04ZM13.6757 11.4339C13.3161 11.4339 12.9688 11.4875 12.6409 11.5859C13.0674 11.2702 13.4222 10.8629 13.6757 10.3932C13.9292 10.8629 14.284 11.2702 14.7106 11.5859C14.3826 11.4875 14.0354 11.4339 13.6757 11.4339Z" fill="#F2F2F2"/>
</svg>
