<svg width="61" height="88" viewBox="0 0 61 88" fill="none" xmlns="http://www.w3.org/2000/svg">
<path d="M30.5 59C46.7924 59 60 45.7924 60 29.5C60 13.2076 46.7924 0 30.5 0C14.2076 0 1 13.2076 1 29.5C1 45.7924 14.2076 59 30.5 59Z" fill="#F2F2F2"/>
<path d="M39.6814 35.176C39.644 35.1311 39.5915 35.0933 39.5466 35.0634C38.4007 34.142 37.1126 33.401 35.7195 32.8616C35.682 32.8466 35.6446 32.8317 35.6071 32.8167C34.1767 32.2773 32.6414 31.9552 31.0386 31.8954C30.9188 31.7308 30.7241 31.6182 30.4994 31.6182C30.2747 31.6182 30.08 31.7308 29.9602 31.8954C28.3574 31.9552 26.8221 32.2773 25.3916 32.8167C25.3542 32.8246 25.3168 32.8396 25.2793 32.8616C23.8863 33.401 22.5981 34.1499 21.4522 35.0634C21.3998 35.0933 21.3549 35.1311 21.3174 35.176C18.0745 37.8345 16 41.879 16 46.3872C16 46.7542 16.2995 47.0543 16.6665 47.0543C17.0335 47.0543 17.3331 46.7542 17.3331 46.3872C17.3331 42.7854 18.786 39.5197 21.1377 37.1384V46.2456C21.1377 46.2975 21.1452 46.3423 21.1527 46.3872C21.2201 46.6873 21.4822 46.9117 21.8042 46.9117C22.1188 46.9117 22.3884 46.6873 22.4558 46.3872C22.4633 46.3423 22.4708 46.2904 22.4708 46.2456V35.9619C23.2272 35.3784 24.0436 34.8759 24.9123 34.4641V40.0591C24.9123 40.4261 25.2119 40.7253 25.5789 40.7253H35.4424C35.8094 40.7253 36.1089 40.4261 36.1089 40.0591V34.4641C36.9777 34.8759 37.8015 35.3784 38.5505 35.9619V46.2456C38.5505 46.2975 38.558 46.3423 38.5654 46.3872C38.6328 46.6873 38.895 46.9117 39.217 46.9117C39.5391 46.9117 39.8012 46.6873 39.8686 46.3872C39.8761 46.3423 39.8836 46.2904 39.8836 46.2456V37.1384C42.2352 39.5197 43.6882 42.7854 43.6882 46.3872C43.6882 46.7542 43.9877 47.0543 44.3547 47.0543C44.7218 47.0543 45.0213 46.7542 45.0213 46.3872C44.9914 41.879 42.9243 37.8345 39.6814 35.176ZM26.223 39.3921V33.9255C27.3613 33.5357 28.5671 33.2963 29.8254 33.2365V34.9516C29.8254 35.3186 30.1249 35.6178 30.492 35.6178C30.8589 35.6178 31.1585 35.3186 31.1585 34.9516V33.2365C32.4092 33.2963 33.6225 33.5357 34.7608 33.9255V39.3921H26.223Z" fill="black"/>
<path d="M19.9839 21.5299H22.9572C22.9347 21.7772 22.9198 22.0174 22.9198 22.2638C22.9198 26.4429 26.3199 29.8512 30.5065 29.8512C34.6856 29.8512 38.0933 26.4509 38.0933 22.2638C38.0933 22.0174 38.0782 21.7701 38.0558 21.5299H41.0066C41.3736 21.5299 41.6732 21.2307 41.6732 20.8637C41.6732 20.4968 41.3736 20.1976 41.0066 20.1976H37.8012L36.2584 13.7859C36.1086 13.1496 35.7191 12.6252 35.1574 12.311C34.6032 11.9889 33.9516 11.9141 33.33 12.1016L30.5739 12.9252L27.8178 12.1016C27.1962 11.9141 26.5447 11.9889 25.983 12.3031C25.4213 12.6181 25.0243 13.1426 24.867 13.7709L23.2118 20.1976H19.9839C19.6169 20.1976 19.3174 20.4968 19.3174 20.8637C19.3174 21.2386 19.6169 21.5299 19.9839 21.5299ZM26.6345 13.4638C26.8741 13.3292 27.1587 13.2992 27.4358 13.382L30.3867 14.2655C30.514 14.3033 30.6413 14.3033 30.7687 14.2655L33.7195 13.382C33.989 13.2992 34.2661 13.3292 34.5059 13.4638C34.7455 13.5993 34.9102 13.8237 34.9776 14.1009L36.4456 20.2046H24.5824L26.1477 14.108C26.2226 13.8308 26.3949 13.5993 26.6345 13.4638ZM36.7602 22.2638C36.7602 25.709 33.9516 28.518 30.5065 28.518C27.0614 28.518 24.2454 25.7169 24.2454 22.2638C24.2454 22.0174 24.2604 21.7701 24.2904 21.5299H36.7077C36.7376 21.7772 36.7602 22.0245 36.7602 22.2638Z" fill="black"/>
<path d="M33.2027 42.0515H27.773C27.406 42.0515 27.1064 42.3507 27.1064 42.7177C27.1064 43.0847 27.406 43.3847 27.773 43.3847H33.2027C33.5697 43.3847 33.8693 43.0847 33.8693 42.7177C33.8693 42.3507 33.5697 42.0515 33.2027 42.0515Z" fill="black"/>
<path d="M31.3752 42.0515H29.6002C29.2332 42.0515 28.9336 42.3507 28.9336 42.7177C28.9336 43.0847 29.2332 43.3847 29.6002 43.3847H31.3752C31.7421 43.3847 32.0417 43.0847 32.0417 42.7177C32.0417 42.3507 31.7421 42.0515 31.3752 42.0515Z" fill="black"/>
<path d="M7.47852 82H1.15527V72.0469H7.41016V73.1201H2.48145V76.3262H6.78125V77.3926H2.48145V80.9336H7.47852V82ZM10.1855 82H8.90723V74.6035H10.1172L10.1514 75.4033C10.402 75.1071 10.7096 74.877 11.0742 74.7129C11.4388 74.5488 11.8604 74.4668 12.3389 74.4668C12.8128 74.4668 13.2344 74.5602 13.6035 74.7471C13.9727 74.9339 14.2552 75.2324 14.4512 75.6426C14.6973 75.2917 15.0163 75.0091 15.4082 74.7949C15.8047 74.5762 16.2695 74.4668 16.8027 74.4668C17.5957 74.4668 18.2064 74.6787 18.6348 75.1025C19.0632 75.5264 19.2773 76.2054 19.2773 77.1396V82H17.999V77.126C17.999 76.5016 17.8555 76.0801 17.5684 75.8613C17.2858 75.638 16.9053 75.5264 16.4268 75.5264C15.9209 75.5264 15.5221 75.679 15.2305 75.9844C14.9434 76.2897 14.777 76.6566 14.7314 77.085V82H13.4531V77.1328C13.4531 76.5495 13.3096 76.137 13.0225 75.8955C12.7354 75.6494 12.3525 75.5264 11.874 75.5264C11.4274 75.5264 11.0674 75.6243 10.7939 75.8203C10.5251 76.0117 10.3223 76.2624 10.1855 76.5723V82ZM22.4697 84.8438H21.1914V74.6035H22.3535L22.4219 75.4102C22.6725 75.1048 22.9756 74.8724 23.3311 74.7129C23.6865 74.5488 24.0967 74.4668 24.5615 74.4668C25.1813 74.4668 25.7054 74.624 26.1338 74.9385C26.5622 75.2529 26.888 75.695 27.1113 76.2646C27.3346 76.8298 27.4463 77.4883 27.4463 78.2402V78.3838C27.4463 79.1038 27.3346 79.7464 27.1113 80.3115C26.888 80.8766 26.5622 81.3232 26.1338 81.6514C25.71 81.9749 25.1927 82.1367 24.582 82.1367C24.1263 82.1367 23.723 82.0638 23.3721 81.918C23.0212 81.7721 22.7204 81.5625 22.4697 81.2891V84.8438ZM26.168 78.2402C26.168 77.748 26.0973 77.2969 25.9561 76.8867C25.8193 76.472 25.6029 76.1416 25.3066 75.8955C25.015 75.6494 24.639 75.5264 24.1787 75.5264C23.7549 75.5264 23.404 75.6243 23.126 75.8203C22.8525 76.0117 22.6338 76.2533 22.4697 76.5449V80.1064C22.6338 80.3981 22.8525 80.6396 23.126 80.8311C23.404 81.0179 23.7594 81.1113 24.1924 81.1113C24.6481 81.1113 25.0218 80.986 25.3135 80.7354C25.6051 80.4847 25.8193 80.1543 25.9561 79.7441C26.0973 79.3294 26.168 78.876 26.168 78.3838V78.2402ZM30.4404 82H29.1621V71.5H30.4404V82ZM32.1289 78.2266C32.1289 77.5111 32.2656 76.8708 32.5391 76.3057C32.8125 75.7406 33.1999 75.2939 33.7012 74.9658C34.2025 74.6331 34.7972 74.4668 35.4854 74.4668C36.1826 74.4668 36.7842 74.6331 37.29 74.9658C37.7959 75.2939 38.1833 75.7406 38.4521 76.3057C38.7256 76.8708 38.8623 77.5111 38.8623 78.2266V78.3838C38.8623 79.0947 38.7256 79.735 38.4521 80.3047C38.1833 80.8698 37.7959 81.3164 37.29 81.6445C36.7887 81.9727 36.1917 82.1367 35.499 82.1367C34.8063 82.1367 34.207 81.9727 33.7012 81.6445C33.1999 81.3164 32.8125 80.8698 32.5391 80.3047C32.2656 79.735 32.1289 79.0947 32.1289 78.3838V78.2266ZM33.4072 78.3838C33.4072 78.8714 33.4847 79.3226 33.6396 79.7373C33.7946 80.152 34.0247 80.4847 34.3301 80.7354C34.64 80.986 35.0296 81.1113 35.499 81.1113C35.9639 81.1113 36.349 80.986 36.6543 80.7354C36.9642 80.4847 37.1966 80.152 37.3516 79.7373C37.5065 79.3226 37.584 78.8714 37.584 78.3838V78.2266C37.584 77.7389 37.5065 77.2878 37.3516 76.873C37.1966 76.4583 36.9642 76.1257 36.6543 75.875C36.3444 75.6198 35.9548 75.4922 35.4854 75.4922C35.0251 75.4922 34.64 75.6198 34.3301 75.875C34.0202 76.1257 33.7878 76.4583 33.6328 76.873C33.4824 77.2878 33.4072 77.7389 33.4072 78.2266V78.3838ZM44.5908 74.6035H45.9512L42.9844 83.1416C42.8978 83.3831 42.7679 83.6475 42.5947 83.9346C42.4215 84.2262 42.1891 84.4746 41.8975 84.6797C41.6058 84.8848 41.2367 84.9873 40.79 84.9873C40.6898 84.9873 40.5622 84.9736 40.4072 84.9463C40.2523 84.9189 40.1406 84.8962 40.0723 84.8779V83.8594C40.1087 83.8639 40.1657 83.8708 40.2432 83.8799C40.3252 83.889 40.3822 83.8936 40.4141 83.8936C40.8424 83.8936 41.1774 83.8047 41.4189 83.627C41.6605 83.4492 41.8564 83.1325 42.0068 82.6768L42.2803 81.9248L39.6484 74.6035H41.043L42.875 80.127L44.5908 74.6035ZM50.1621 82.1367C49.474 82.1367 48.8747 81.984 48.3643 81.6787C47.8584 81.3688 47.4642 80.945 47.1816 80.4072C46.9036 79.8695 46.7646 79.2542 46.7646 78.5615V78.2676C46.7646 77.4655 46.9173 76.7819 47.2227 76.2168C47.5326 75.6471 47.9336 75.2142 48.4258 74.918C48.9225 74.6172 49.4466 74.4668 49.998 74.4668C50.709 74.4668 51.2878 74.6263 51.7344 74.9453C52.1855 75.2598 52.516 75.6904 52.7256 76.2373C52.9398 76.7796 53.0469 77.3949 53.0469 78.083V78.6504H48.043C48.0566 79.1061 48.1501 79.5208 48.3232 79.8945C48.501 80.2637 48.7516 80.5599 49.0752 80.7832C49.3988 81.002 49.7839 81.1113 50.2305 81.1113C50.6771 81.1113 51.0553 81.0202 51.3652 80.8379C51.6751 80.6556 51.9463 80.4118 52.1787 80.1064L52.9512 80.708C52.7142 81.0726 52.3724 81.403 51.9258 81.6992C51.4837 81.9909 50.8958 82.1367 50.1621 82.1367ZM49.998 75.4922C49.4967 75.4922 49.0729 75.6768 48.7266 76.0459C48.3848 76.415 48.1706 76.9414 48.084 77.625H51.7686V77.5293C51.7503 77.2012 51.6842 76.8822 51.5703 76.5723C51.4564 76.2578 51.2741 76.0003 51.0234 75.7998C50.7728 75.5947 50.431 75.4922 49.998 75.4922ZM50.6816 71.5H52.2197L50.3809 73.5029H49.3555L50.6816 71.5ZM58.8301 80.0381C58.8301 79.8558 58.7891 79.6872 58.707 79.5322C58.6296 79.3727 58.4701 79.2292 58.2285 79.1016C57.987 78.9694 57.6224 78.8532 57.1348 78.7529C56.3145 78.5798 55.665 78.3337 55.1865 78.0146C54.708 77.6956 54.4688 77.2331 54.4688 76.627C54.4688 76.235 54.5804 75.8773 54.8037 75.5537C55.0316 75.2256 55.3506 74.9635 55.7607 74.7676C56.1755 74.5671 56.6585 74.4668 57.21 74.4668C57.8024 74.4668 58.3083 74.5716 58.7275 74.7812C59.1514 74.9863 59.4749 75.2643 59.6982 75.6152C59.9215 75.9616 60.0332 76.3467 60.0332 76.7705H58.7549C58.7549 76.4652 58.6204 76.1758 58.3516 75.9023C58.0872 75.6289 57.7067 75.4922 57.21 75.4922C56.6859 75.4922 56.3099 75.6084 56.082 75.8408C55.8587 76.0687 55.7471 76.3171 55.7471 76.5859C55.7471 76.7682 55.7926 76.9277 55.8838 77.0645C55.9749 77.1966 56.1413 77.3151 56.3828 77.4199C56.6289 77.5247 56.9844 77.6296 57.4492 77.7344C58.3561 77.944 59.026 78.2174 59.459 78.5547C59.8919 78.8874 60.1084 79.3522 60.1084 79.9492C60.1084 80.5964 59.8464 81.1227 59.3223 81.5283C58.8027 81.9339 58.11 82.1367 57.2441 82.1367C56.5924 82.1367 56.041 82.0205 55.5898 81.7881C55.1387 81.5557 54.7969 81.2572 54.5645 80.8926C54.332 80.5234 54.2158 80.1338 54.2158 79.7236H55.4941C55.5169 80.07 55.6172 80.3457 55.7949 80.5508C55.9772 80.7513 56.1982 80.8949 56.458 80.9814C56.7223 81.068 56.9844 81.1113 57.2441 81.1113C57.7591 81.1113 58.151 81.0088 58.4199 80.8037C58.6934 80.5986 58.8301 80.3434 58.8301 80.0381Z" fill="#F2F2F2"/>
</svg>
