<svg width="38" height="25" viewBox="0 0 38 25" fill="none" xmlns="http://www.w3.org/2000/svg">
<path d="M2.11111 25H35.8889C37.05 25 38 24.0625 38 22.9167C38 21.7708 37.05 20.8333 35.8889 20.8333H2.11111C0.95 20.8333 0 21.7708 0 22.9167C0 24.0625 0.95 25 2.11111 25ZM2.11111 14.5833H35.8889C37.05 14.5833 38 13.6458 38 12.5C38 11.3542 37.05 10.4167 35.8889 10.4167H2.11111C0.95 10.4167 0 11.3542 0 12.5C0 13.6458 0.95 14.5833 2.11111 14.5833ZM0 2.08333C0 3.22917 0.95 4.16667 2.11111 4.16667H35.8889C37.05 4.16667 38 3.22917 38 2.08333C38 0.9375 37.05 0 35.8889 0H2.11111C0.95 0 0 0.9375 0 2.08333Z" fill="white"/>
</svg>
