<svg width="25" height="25" viewBox="0 0 25 25" fill="none" xmlns="http://www.w3.org/2000/svg">
<path d="M24.474 21.9197L15.0988 12.5276L24.4203 3.26747C25.1235 2.57048 25.1235 1.44216 24.4203 0.746926C23.7194 0.0517979 22.5804 0.0517979 21.8794 0.746926L12.5689 9.99464L3.1203 0.529408C2.41935 -0.176469 1.28034 -0.176469 0.579389 0.529408C-0.121558 1.23353 -0.121558 2.37785 0.579389 3.08197L10.0137 12.5329L0.52571 21.9571C-0.175237 22.654 -0.175237 23.7825 0.52571 24.4776C1.22666 25.1741 2.36569 25.1741 3.06882 24.4776L12.5448 15.0659L21.9342 24.4705C22.6351 25.1763 23.7742 25.1763 24.4762 24.4705C25.175 23.7682 25.175 22.6256 24.474 21.9197Z" fill="white"/>
</svg>
