<svg width="262" height="12" viewBox="0 0 262 12" fill="none" xmlns="http://www.w3.org/2000/svg">
<g clip-path="url(#clip0)">
<path d="M8.68851 1.04731L4.98341 11.0003H4.29981H4.17682L0.478516 1.04731H1.39452L4.51862 9.7633L4.58012 9.97529L4.63482 9.7633L7.77251 1.04731H8.68851ZM15.8389 6.8443C15.8389 8.27929 15.5768 9.35532 15.0527 10.0703C14.5286 10.7813 13.7744 11.1373 12.79 11.1373C11.8148 11.1373 11.0583 10.7793 10.5205 10.0633C9.98732 9.3483 9.72072 8.2753 9.72072 6.8443V5.16932C9.72072 3.74332 9.98502 2.67628 10.5137 1.97028C11.0469 1.25928 11.8011 0.90332 12.7764 0.90332C13.7607 0.90332 14.5173 1.25732 15.0459 1.96332C15.5745 2.66932 15.8389 3.73832 15.8389 5.16932V6.8443ZM15.0254 5.06629C15.0254 3.92729 14.8363 3.0663 14.458 2.4823C14.0843 1.8953 13.5238 1.60132 12.7764 1.60132C12.0381 1.60132 11.4798 1.8953 11.1016 2.4823C10.7279 3.0663 10.541 3.92729 10.541 5.06629V6.93934C10.541 8.06534 10.7324 8.9313 11.1152 9.5373C11.498 10.1393 12.0563 10.4393 12.79 10.4393C13.5329 10.4393 14.0911 10.1413 14.4648 9.54432C14.8385 8.94232 15.0254 8.07434 15.0254 6.93934V5.06629ZM18.2383 9.93433C18.416 9.93433 18.5573 9.98833 18.6621 10.0983C18.7715 10.2023 18.8262 10.3373 18.8262 10.5013C18.8262 10.6603 18.7715 10.7953 18.6621 10.9043C18.5573 11.0093 18.416 11.0623 18.2383 11.0623C18.0605 11.0623 17.9193 11.0093 17.8145 10.9043C17.7142 10.7993 17.6641 10.6653 17.6641 10.5013C17.6641 10.3373 17.7142 10.2023 17.8145 10.0983C17.9193 9.98833 18.0605 9.93433 18.2383 9.93433ZM20.9521 11.0003V10.3643L24.213 6.67327C24.824 5.98028 25.252 5.40828 25.498 4.95728C25.749 4.50128 25.874 4.06631 25.874 3.65131C25.874 3.24631 25.792 2.89033 25.628 2.58533C25.468 2.27533 25.231 2.03631 24.917 1.86731C24.607 1.69431 24.233 1.6073 23.796 1.6073C23.34 1.6073 22.9437 1.70833 22.6064 1.90833C22.2692 2.10433 22.0094 2.37831 21.8271 2.72931C21.6449 3.07531 21.5537 3.47134 21.5537 3.91834H20.7334C20.7334 3.36734 20.8564 2.86329 21.1025 2.40729C21.3532 1.94729 21.7087 1.5823 22.1689 1.3133C22.6338 1.0453 23.176 0.910278 23.796 0.910278C24.388 0.910278 24.901 1.01733 25.334 1.23133C25.771 1.44133 26.106 1.74628 26.339 2.14728C26.576 2.54928 26.694 3.0253 26.694 3.5763C26.694 4.1233 26.521 4.68632 26.175 5.26532C25.828 5.84332 25.35 6.47931 24.739 7.17231L21.957 10.3033H27.193V11.0003H20.9521ZM35.246 1.04731C36.066 1.04731 36.798 1.2343 37.44 1.6073C38.088 1.9813 38.591 2.51232 38.951 3.20032C39.311 3.88432 39.491 4.67231 39.491 5.56531V6.48133C39.491 7.37932 39.311 8.17031 38.951 8.85431C38.591 9.5373 38.085 10.0663 37.434 10.4393C36.782 10.8133 36.032 11.0003 35.185 11.0003H32.929H32.464V1.04731H33.305H35.246ZM38.657 5.55231C38.657 4.79531 38.516 4.13232 38.233 3.56232C37.951 2.98832 37.552 2.54633 37.037 2.23633C36.522 1.92233 35.925 1.76532 35.246 1.76532H33.305V10.2893H35.185C35.886 10.2893 36.499 10.1303 37.023 9.81128C37.548 9.49228 37.951 9.04532 38.233 8.47132C38.516 7.89632 38.657 7.23333 38.657 6.48133V5.55231ZM41.809 7.35029V7.50733C41.809 8.04932 41.916 8.54632 42.13 8.99732C42.344 9.44431 42.643 9.79732 43.025 10.0573C43.408 10.3163 43.846 10.4463 44.338 10.4463C44.78 10.4463 45.17 10.3673 45.507 10.2073C45.844 10.0433 46.145 9.78531 46.409 9.43531L46.929 9.82428C46.66 10.2213 46.309 10.5403 45.876 10.7813C45.448 11.0183 44.924 11.1373 44.304 11.1373C43.67 11.1373 43.101 10.9823 42.595 10.6723C42.093 10.3623 41.699 9.9313 41.412 9.38031C41.13 8.82831 40.988 8.20433 40.988 7.50733V7.21332C40.988 6.47532 41.132 5.82129 41.419 5.25129C41.711 4.68129 42.098 4.24232 42.581 3.93232C43.069 3.62232 43.595 3.46729 44.16 3.46729C44.771 3.46729 45.297 3.61028 45.739 3.89728C46.181 4.18528 46.516 4.5833 46.744 5.0943C46.972 5.60429 47.086 6.19032 47.086 6.85132V7.35029H41.809ZM44.16 4.16431C43.75 4.16431 43.379 4.26729 43.046 4.47229C42.718 4.67729 42.449 4.96829 42.239 5.34729C42.03 5.7203 41.897 6.15629 41.843 6.65229H46.266V6.5633C46.257 6.1353 46.17 5.73933 46.006 5.37433C45.846 5.00933 45.609 4.71833 45.295 4.49933C44.98 4.27633 44.602 4.16431 44.16 4.16431ZM56.048 1.04731L52.343 11.0003H51.659H51.536L47.838 1.04731H48.754L51.878 9.7633L51.939 9.97529L51.994 9.7633L55.132 1.04731H56.048ZM57.839 0.910278C58.012 0.910278 58.149 0.963322 58.249 1.06733C58.354 1.17233 58.406 1.3043 58.406 1.4643C58.406 1.6193 58.354 1.74931 58.249 1.85431C58.149 1.95431 58.012 2.00434 57.839 2.00434C57.67 2.00434 57.534 1.95431 57.429 1.85431C57.328 1.74931 57.278 1.6193 57.278 1.4643C57.278 1.3043 57.328 1.17233 57.429 1.06733C57.534 0.963322 57.67 0.910278 57.839 0.910278ZM57.429 11.0003V3.60431H58.242V11.0003H57.429ZM63.697 3.46729C64.463 3.46729 65.046 3.68334 65.447 4.11634C65.853 4.54934 66.056 5.23734 66.056 6.18133V11.0003H65.235V6.18133C65.235 5.45133 65.087 4.93434 64.791 4.62934C64.495 4.32434 64.062 4.17133 63.492 4.17133C62.959 4.17133 62.503 4.34031 62.125 4.67731C61.747 5.00931 61.469 5.42432 61.291 5.92133V11.0003H60.471V3.60431H61.257L61.284 4.85431C61.549 4.42231 61.888 4.08231 62.303 3.83631C62.717 3.59031 63.182 3.46729 63.697 3.46729ZM68.537 7.35029V7.50733C68.537 8.04932 68.644 8.54632 68.858 8.99732C69.073 9.44431 69.371 9.79732 69.754 10.0573C70.137 10.3163 70.574 10.4463 71.066 10.4463C71.508 10.4463 71.898 10.3673 72.235 10.2073C72.573 10.0433 72.873 9.78531 73.138 9.43531L73.657 9.82428C73.388 10.2213 73.037 10.5403 72.604 10.7813C72.176 11.0183 71.652 11.1373 71.032 11.1373C70.399 11.1373 69.829 10.9823 69.323 10.6723C68.822 10.3623 68.428 9.9313 68.141 9.38031C67.858 8.82831 67.717 8.20433 67.717 7.50733V7.21332C67.717 6.47532 67.86 5.82129 68.147 5.25129C68.439 4.68129 68.826 4.24232 69.31 3.93232C69.797 3.62232 70.324 3.46729 70.889 3.46729C71.499 3.46729 72.026 3.61028 72.468 3.89728C72.91 4.18528 73.245 4.5833 73.473 5.0943C73.701 5.60429 73.814 6.19032 73.814 6.85132V7.35029H68.537ZM70.889 4.16431C70.479 4.16431 70.107 4.26729 69.774 4.47229C69.446 4.67729 69.177 4.96829 68.968 5.34729C68.758 5.7203 68.626 6.15629 68.571 6.65229H72.994V6.5633C72.985 6.1353 72.898 5.73933 72.734 5.37433C72.575 5.00933 72.338 4.71833 72.023 4.49933C71.709 4.27633 71.331 4.16431 70.889 4.16431ZM77.868 7.55529C77.285 7.43229 76.806 7.28631 76.433 7.11731C76.063 6.94931 75.781 6.73233 75.585 6.46833C75.389 6.20333 75.291 5.8733 75.291 5.4773C75.291 5.1073 75.398 4.77034 75.612 4.46534C75.826 4.16034 76.13 3.9183 76.521 3.7403C76.918 3.5583 77.376 3.46729 77.896 3.46729C78.456 3.46729 78.941 3.56234 79.352 3.75434C79.766 3.94134 80.083 4.20329 80.302 4.54029C80.521 4.87329 80.63 5.2513 80.63 5.6753H79.803C79.803 5.4153 79.728 5.16931 79.577 4.93731C79.427 4.70431 79.206 4.51729 78.914 4.37629C78.627 4.23529 78.287 4.16431 77.896 4.16431C77.49 4.16431 77.153 4.22631 76.884 4.34931C76.619 4.47231 76.424 4.63134 76.296 4.82734C76.168 5.02334 76.104 5.23028 76.104 5.44928C76.104 5.68628 76.155 5.88734 76.255 6.05134C76.36 6.21534 76.556 6.36531 76.843 6.50232C77.13 6.63932 77.542 6.76933 78.08 6.89233C78.691 7.03333 79.183 7.1993 79.557 7.39129C79.935 7.57729 80.215 7.8083 80.397 8.0813C80.58 8.3503 80.671 8.68032 80.671 9.07232C80.671 9.47332 80.557 9.83131 80.329 10.1463C80.106 10.4603 79.787 10.7043 79.372 10.8773C78.962 11.0503 78.486 11.1373 77.943 11.1373C77.342 11.1373 76.822 11.0363 76.385 10.8363C75.947 10.6313 75.615 10.3603 75.387 10.0223C75.159 9.68128 75.045 9.31431 75.045 8.92231H75.858C75.895 9.45531 76.114 9.84229 76.515 10.0843C76.92 10.3213 77.396 10.4393 77.943 10.4393C78.344 10.4393 78.688 10.3783 78.976 10.2553C79.263 10.1323 79.479 9.97032 79.625 9.77032C79.775 9.56932 79.851 9.35029 79.851 9.11329C79.851 8.76229 79.709 8.4553 79.427 8.1903C79.144 7.9263 78.625 7.71429 77.868 7.55529ZM87.028 0.910278C87.912 0.910278 88.724 1.13629 89.462 1.58729C90.205 2.03429 90.793 2.64634 91.226 3.42634C91.663 4.20534 91.882 5.06933 91.882 6.01733C91.882 6.96533 91.663 7.83032 91.226 8.61432C90.793 9.39431 90.205 10.0113 89.462 10.4673C88.719 10.9183 87.908 11.1443 87.028 11.1443C86.149 11.1443 85.338 10.9183 84.595 10.4673C83.852 10.0113 83.262 9.39431 82.824 8.61432C82.391 7.83032 82.175 6.96533 82.175 6.01733C82.175 5.07333 82.391 4.21229 82.824 3.43329C83.262 2.64929 83.852 2.03429 84.595 1.58729C85.338 1.13629 86.149 0.910278 87.028 0.910278ZM87.028 10.5493C87.799 10.5493 88.509 10.3483 89.161 9.94732C89.817 9.54632 90.337 8.99932 90.72 8.30731C91.103 7.61432 91.294 6.85134 91.294 6.01733C91.294 5.18333 91.103 4.42228 90.72 3.73328C90.337 3.04128 89.817 2.49629 89.161 2.10029C88.509 1.69929 87.799 1.4983 87.028 1.4983C86.258 1.4983 85.545 1.69929 84.889 2.10029C84.237 2.49629 83.72 3.04128 83.337 3.73328C82.954 4.42228 82.763 5.18333 82.763 6.01733C82.763 6.85134 82.954 7.61432 83.337 8.30731C83.72 8.99932 84.237 9.54632 84.889 9.94732C85.545 10.3483 86.258 10.5493 87.028 10.5493ZM89.113 6.85132C89.113 7.55231 88.922 8.08632 88.539 8.45032C88.161 8.81532 87.634 8.99732 86.96 8.99732C86.504 8.99732 86.103 8.88832 85.757 8.66932C85.415 8.44632 85.151 8.1333 84.964 7.7323C84.777 7.3313 84.684 6.8713 84.684 6.3523V5.6883C84.684 5.1693 84.777 4.71134 84.964 4.31434C85.151 3.91334 85.415 3.6013 85.757 3.3783C86.103 3.1553 86.504 3.04334 86.96 3.04334C87.634 3.04334 88.163 3.22534 88.546 3.59034C88.929 3.95434 89.12 4.48529 89.12 5.18329H88.443C88.443 4.16629 87.949 3.65833 86.96 3.65833C86.627 3.65833 86.34 3.7473 86.099 3.9253C85.862 4.0983 85.679 4.33732 85.552 4.64332C85.429 4.94832 85.367 5.29432 85.367 5.68232V6.3523C85.367 6.7433 85.429 7.09228 85.552 7.39727C85.679 7.70327 85.862 7.9423 86.099 8.1153C86.34 8.2883 86.627 8.37531 86.96 8.37531C87.448 8.37531 87.814 8.25228 88.061 8.00628C88.311 7.76028 88.437 7.37532 88.437 6.85132H89.113ZM96.995 11.0003V10.3643L100.256 6.67327C100.867 5.98028 101.295 5.40828 101.541 4.95728C101.792 4.50128 101.917 4.06631 101.917 3.65131C101.917 3.24631 101.835 2.89033 101.671 2.58533C101.511 2.27533 101.274 2.03631 100.96 1.86731C100.65 1.69431 100.276 1.6073 99.839 1.6073C99.383 1.6073 98.987 1.70833 98.649 1.90833C98.312 2.10433 98.052 2.37831 97.87 2.72931C97.688 3.07531 97.597 3.47134 97.597 3.91834H96.776C96.776 3.36734 96.899 2.86329 97.146 2.40729C97.396 1.94729 97.752 1.5823 98.212 1.3133C98.677 1.0453 99.219 0.910278 99.839 0.910278C100.431 0.910278 100.944 1.01733 101.377 1.23133C101.814 1.44133 102.149 1.74628 102.382 2.14728C102.619 2.54928 102.737 3.0253 102.737 3.5763C102.737 4.1233 102.564 4.68632 102.218 5.26532C101.871 5.84332 101.393 6.47931 100.782 7.17231L98 10.3033H103.236V11.0003H96.995ZM110.763 6.8443C110.763 8.27929 110.501 9.35532 109.977 10.0703C109.452 10.7813 108.698 11.1373 107.714 11.1373C106.739 11.1373 105.982 10.7793 105.444 10.0633C104.911 9.3483 104.645 8.2753 104.645 6.8443V5.16932C104.645 3.74332 104.909 2.67628 105.438 1.97028C105.971 1.25928 106.725 0.90332 107.7 0.90332C108.685 0.90332 109.441 1.25732 109.97 1.96332C110.498 2.66932 110.763 3.73832 110.763 5.16932V6.8443ZM109.949 5.06629C109.949 3.92729 109.76 3.0663 109.382 2.4823C109.008 1.8953 108.448 1.60132 107.7 1.60132C106.962 1.60132 106.404 1.8953 106.025 2.4823C105.652 3.0663 105.465 3.92729 105.465 5.06629V6.93934C105.465 8.06534 105.656 8.9313 106.039 9.5373C106.422 10.1393 106.98 10.4393 107.714 10.4393C108.457 10.4393 109.015 10.1413 109.389 9.54432C109.762 8.94232 109.949 8.07434 109.949 6.93934V5.06629ZM112.526 11.0003V10.3643L115.787 6.67327C116.398 5.98028 116.826 5.40828 117.072 4.95728C117.323 4.50128 117.448 4.06631 117.448 3.65131C117.448 3.24631 117.366 2.89033 117.202 2.58533C117.043 2.27533 116.806 2.03631 116.491 1.86731C116.181 1.69431 115.808 1.6073 115.37 1.6073C114.914 1.6073 114.518 1.70833 114.181 1.90833C113.843 2.10433 113.584 2.37831 113.401 2.72931C113.219 3.07531 113.128 3.47134 113.128 3.91834H112.308C112.308 3.36734 112.431 2.86329 112.677 2.40729C112.927 1.94729 113.283 1.5823 113.743 1.3133C114.208 1.0453 114.75 0.910278 115.37 0.910278C115.963 0.910278 116.475 1.01733 116.908 1.23133C117.346 1.44133 117.681 1.74628 117.913 2.14728C118.15 2.54928 118.269 3.0253 118.269 3.5763C118.269 4.1233 118.095 4.68632 117.749 5.26532C117.403 5.84332 116.924 6.47931 116.313 7.17231L113.531 10.3033H118.768V11.0003H112.526ZM126.294 6.8443C126.294 8.27929 126.032 9.35532 125.508 10.0703C124.984 10.7813 124.229 11.1373 123.245 11.1373C122.27 11.1373 121.513 10.7793 120.976 10.0633C120.442 9.3483 120.176 8.2753 120.176 6.8443V5.16932C120.176 3.74332 120.44 2.67628 120.969 1.97028C121.502 1.25928 122.256 0.90332 123.231 0.90332C124.216 0.90332 124.972 1.25732 125.501 1.96332C126.03 2.66932 126.294 3.73832 126.294 5.16932V6.8443ZM125.48 5.06629C125.48 3.92729 125.291 3.0663 124.913 2.4823C124.539 1.8953 123.979 1.60132 123.231 1.60132C122.493 1.60132 121.935 1.8953 121.557 2.4823C121.183 3.0663 120.996 3.92729 120.996 5.06629V6.93934C120.996 8.06534 121.188 8.9313 121.57 9.5373C121.953 10.1393 122.511 10.4393 123.245 10.4393C123.988 10.4393 124.546 10.1413 124.92 9.54432C125.294 8.94232 125.48 8.07434 125.48 6.93934V5.06629Z" fill="white"/>
<path d="M138.838 2.47601H135.741V11H133.978V2.47601H130.915V1.047H135.741H138.838V2.47601ZM138.551 7.23297C138.551 6.51297 138.688 5.86801 138.961 5.29901C139.239 4.72901 139.638 4.28298 140.157 3.95898C140.677 3.63098 141.287 3.46698 141.989 3.46698C142.7 3.46698 143.315 3.63098 143.835 3.95898C144.359 4.28298 144.758 4.72901 145.031 5.29901C145.309 5.86801 145.448 6.51297 145.448 7.23297V7.37701C145.448 8.09701 145.309 8.74201 145.031 9.31201C144.758 9.88101 144.361 10.328 143.842 10.651C143.322 10.975 142.709 11.137 142.003 11.137C141.297 11.137 140.681 10.975 140.157 10.651C139.638 10.328 139.239 9.88101 138.961 9.31201C138.688 8.74201 138.551 8.09701 138.551 7.37701V7.23297ZM140.253 7.37701C140.253 8.07901 140.399 8.65298 140.69 9.09998C140.982 9.54598 141.42 9.77002 142.003 9.77002C142.39 9.77002 142.714 9.66502 142.974 9.45502C143.238 9.24102 143.432 8.95399 143.555 8.59399C143.682 8.23399 143.746 7.82801 143.746 7.37701V7.23297C143.746 6.78697 143.682 6.38301 143.555 6.02301C143.432 5.65901 143.238 5.36903 142.974 5.15503C142.709 4.94103 142.381 4.83398 141.989 4.83398C141.602 4.83398 141.278 4.94103 141.019 5.15503C140.759 5.36903 140.565 5.65901 140.438 6.02301C140.314 6.38301 140.253 6.78697 140.253 7.23297V7.37701ZM152.954 3.604V11H151.348L151.307 10.269C150.824 10.847 150.133 11.137 149.235 11.137C148.47 11.137 147.87 10.913 147.438 10.467C147.005 10.02 146.788 9.32502 146.788 8.38202V3.604H148.49V8.396C148.49 8.879 148.595 9.225 148.805 9.435C149.019 9.64 149.299 9.742 149.646 9.742C150.434 9.742 150.967 9.462 151.245 8.901V3.604H152.954ZM157.179 7.90997C156.331 7.73197 155.677 7.47002 155.217 7.12402C154.757 6.77802 154.526 6.308 154.526 5.716C154.526 5.31 154.643 4.93697 154.875 4.59497C155.112 4.24797 155.447 3.97499 155.88 3.77399C156.317 3.56899 156.821 3.46698 157.391 3.46698C157.997 3.46698 158.523 3.56899 158.97 3.77399C159.421 3.97899 159.767 4.26201 160.009 4.62201C160.25 4.97801 160.371 5.37901 160.371 5.82501H158.669C158.669 5.62901 158.619 5.44897 158.519 5.28497C158.423 5.11697 158.279 4.98202 158.088 4.88202C157.896 4.78202 157.664 4.73102 157.391 4.73102C157.003 4.73102 156.705 4.81803 156.495 4.99103C156.285 5.16403 156.181 5.38099 156.181 5.64099C156.181 5.80499 156.224 5.94398 156.311 6.05798C156.402 6.17198 156.557 6.27399 156.775 6.36499C156.994 6.45599 157.297 6.543 157.685 6.625C158.286 6.753 158.785 6.90803 159.182 7.09003C159.578 7.27203 159.883 7.50903 160.098 7.80103C160.312 8.09203 160.419 8.45702 160.419 8.89502C160.419 9.32702 160.294 9.71501 160.043 10.057C159.797 10.398 159.446 10.665 158.99 10.856C158.535 11.043 158.008 11.137 157.411 11.137C156.764 11.137 156.203 11.018 155.729 10.781C155.256 10.544 154.896 10.237 154.649 9.85797C154.403 9.47997 154.28 9.08099 154.28 8.66199H155.928C155.946 9.07699 156.099 9.382 156.386 9.578C156.677 9.774 157.028 9.87201 157.438 9.87201C157.853 9.87201 158.174 9.792 158.402 9.633C158.635 9.469 158.751 9.25197 158.751 8.98297C158.751 8.80997 158.71 8.662 158.628 8.539C158.546 8.416 158.389 8.30202 158.156 8.19702C157.928 8.09202 157.603 7.99697 157.179 7.90997ZM171.534 0.5V11H169.996L169.914 10.228C169.422 10.834 168.763 11.137 167.938 11.137C167.355 11.137 166.842 10.975 166.4 10.651C165.963 10.328 165.626 9.88101 165.389 9.31201C165.152 8.74201 165.033 8.09897 165.033 7.38397V7.23999C165.033 6.49299 165.149 5.83401 165.382 5.26501C165.619 4.69501 165.956 4.25299 166.394 3.93799C166.836 3.62399 167.355 3.46698 167.952 3.46698C168.727 3.46698 169.354 3.73803 169.832 4.28003V0.5H171.534ZM168.369 9.742C169.044 9.742 169.531 9.446 169.832 8.854V5.72302C169.536 5.14402 169.053 4.854 168.383 4.854C167.827 4.854 167.412 5.07601 167.139 5.51801C166.87 5.96001 166.735 6.53399 166.735 7.23999V7.38397C166.735 8.08597 166.868 8.65502 167.132 9.09302C167.401 9.52602 167.813 9.742 168.369 9.742ZM176.586 3.46698C176.682 3.46698 176.789 3.47602 176.907 3.49402C177.03 3.51202 177.121 3.53303 177.181 3.55603L177.167 5.16199C176.939 5.12599 176.714 5.10699 176.49 5.10699C175.729 5.10699 175.219 5.39197 174.959 5.96198V11H173.257V3.604H174.877L174.925 4.43799C175.112 4.12799 175.344 3.88797 175.622 3.71997C175.9 3.55097 176.221 3.46698 176.586 3.46698ZM177.748 7.23297C177.748 6.51297 177.885 5.86801 178.158 5.29901C178.436 4.72901 178.835 4.28298 179.354 3.95898C179.874 3.63098 180.485 3.46698 181.187 3.46698C181.897 3.46698 182.513 3.63098 183.032 3.95898C183.556 4.28298 183.955 4.72901 184.229 5.29901C184.507 5.86801 184.646 6.51297 184.646 7.23297V7.37701C184.646 8.09701 184.507 8.74201 184.229 9.31201C183.955 9.88101 183.559 10.328 183.039 10.651C182.52 10.975 181.907 11.137 181.2 11.137C180.494 11.137 179.879 10.975 179.354 10.651C178.835 10.328 178.436 9.88101 178.158 9.31201C177.885 8.74201 177.748 8.09701 177.748 7.37701V7.23297ZM179.45 7.37701C179.45 8.07901 179.596 8.65298 179.888 9.09998C180.179 9.54598 180.617 9.77002 181.2 9.77002C181.588 9.77002 181.911 9.66502 182.171 9.45502C182.435 9.24102 182.629 8.95399 182.752 8.59399C182.88 8.23399 182.943 7.82801 182.943 7.37701V7.23297C182.943 6.78697 182.88 6.38301 182.752 6.02301C182.629 5.65901 182.435 5.36903 182.171 5.15503C181.907 4.94103 181.578 4.83398 181.187 4.83398C180.799 4.83398 180.476 4.94103 180.216 5.15503C179.956 5.36903 179.762 5.65901 179.635 6.02301C179.512 6.38301 179.45 6.78697 179.45 7.23297V7.37701ZM186.99 0.77301C187.286 0.77301 187.521 0.86002 187.694 1.03302C187.868 1.20202 187.954 1.41798 187.954 1.68298C187.954 1.94198 187.868 2.15701 187.694 2.32501C187.521 2.49401 187.286 2.578 186.99 2.578C186.694 2.578 186.459 2.49597 186.286 2.33197C186.113 2.16297 186.026 1.94698 186.026 1.68298C186.026 1.41798 186.113 1.20202 186.286 1.03302C186.459 0.86002 186.694 0.77301 186.99 0.77301ZM186.136 11V3.604H187.838V11H186.136ZM192.507 9.729C192.689 9.729 192.883 9.70597 193.088 9.65997V10.973C192.76 11.082 192.391 11.137 191.98 11.137C191.379 11.137 190.905 10.97 190.559 10.638C190.212 10.305 190.039 9.77398 190.039 9.04498V4.86102H188.836V3.604H190.039V1.79901H191.741V3.604H193.04V4.86102H191.741V8.92902C191.741 9.23902 191.805 9.45103 191.933 9.56403C192.06 9.67403 192.252 9.729 192.507 9.729ZM196.854 7.90997C196.007 7.73197 195.353 7.47002 194.893 7.12402C194.432 6.77802 194.202 6.308 194.202 5.716C194.202 5.31 194.318 4.93697 194.551 4.59497C194.788 4.24797 195.123 3.97499 195.556 3.77399C195.993 3.56899 196.497 3.46698 197.066 3.46698C197.673 3.46698 198.199 3.56899 198.646 3.77399C199.097 3.97899 199.443 4.26201 199.685 4.62201C199.926 4.97801 200.047 5.37901 200.047 5.82501H198.345C198.345 5.62901 198.295 5.44897 198.194 5.28497C198.099 5.11697 197.955 4.98202 197.764 4.88202C197.572 4.78202 197.34 4.73102 197.066 4.73102C196.679 4.73102 196.381 4.81803 196.171 4.99103C195.961 5.16403 195.856 5.38099 195.856 5.64099C195.856 5.80499 195.9 5.94398 195.986 6.05798C196.077 6.17198 196.232 6.27399 196.451 6.36499C196.67 6.45599 196.973 6.543 197.36 6.625C197.962 6.753 198.461 6.90803 198.857 7.09003C199.254 7.27203 199.559 7.50903 199.773 7.80103C199.988 8.09203 200.095 8.45702 200.095 8.89502C200.095 9.32702 199.969 9.71501 199.719 10.057C199.473 10.398 199.122 10.665 198.666 10.856C198.21 11.043 197.684 11.137 197.087 11.137C196.44 11.137 195.879 11.018 195.405 10.781C194.931 10.544 194.571 10.237 194.325 9.85797C194.079 9.47997 193.956 9.08099 193.956 8.66199H195.604C195.622 9.07699 195.774 9.382 196.062 9.578C196.353 9.774 196.704 9.87201 197.114 9.87201C197.529 9.87201 197.85 9.792 198.078 9.633C198.311 9.469 198.427 9.25197 198.427 8.98297C198.427 8.80997 198.386 8.662 198.304 8.539C198.222 8.416 198.064 8.30202 197.832 8.19702C197.604 8.09202 197.278 7.99697 196.854 7.90997ZM208.346 3.46698C208.441 3.46698 208.549 3.47602 208.667 3.49402C208.79 3.51202 208.881 3.53303 208.94 3.55603L208.927 5.16199C208.699 5.12599 208.473 5.10699 208.25 5.10699C207.489 5.10699 206.979 5.39197 206.719 5.96198V11H205.017V3.604H206.637L206.685 4.43799C206.871 4.12799 207.104 3.88797 207.382 3.71997C207.66 3.55097 207.981 3.46698 208.346 3.46698ZM216.221 7.83502H211.401C211.433 8.21302 211.531 8.54803 211.695 8.84003C211.859 9.13203 212.08 9.35901 212.358 9.52301C212.641 9.68801 212.969 9.77002 213.343 9.77002C214.108 9.77002 214.724 9.469 215.188 8.867L216.098 9.74902C215.829 10.146 215.455 10.476 214.977 10.74C214.498 11.005 213.919 11.137 213.24 11.137C212.52 11.137 211.891 10.982 211.354 10.672C210.816 10.357 210.403 9.92902 210.116 9.38702C209.829 8.84402 209.686 8.23601 209.686 7.56201V7.28101C209.686 6.52001 209.831 5.85301 210.123 5.27802C210.415 4.70002 210.816 4.25299 211.326 3.93799C211.837 3.62399 212.411 3.46698 213.049 3.46698C213.746 3.46698 214.332 3.61899 214.806 3.92499C215.28 4.22999 215.633 4.65902 215.865 5.21002C216.102 5.75702 216.221 6.393 216.221 7.117V7.83502ZM214.539 6.47498C214.516 5.99598 214.386 5.60401 214.149 5.29901C213.912 4.98901 213.543 4.83398 213.042 4.83398C212.595 4.83398 212.235 4.98901 211.962 5.29901C211.688 5.60901 211.513 6.044 211.436 6.604H214.539V6.47498ZM215.339 0.5L213.445 2.57098H212.078L213.411 0.5H215.339ZM220.042 7.90997C219.194 7.73197 218.54 7.47002 218.08 7.12402C217.62 6.77802 217.39 6.308 217.39 5.716C217.39 5.31 217.506 4.93697 217.738 4.59497C217.975 4.24797 218.31 3.97499 218.743 3.77399C219.181 3.56899 219.684 3.46698 220.254 3.46698C220.86 3.46698 221.386 3.56899 221.833 3.77399C222.284 3.97899 222.631 4.26201 222.872 4.62201C223.114 4.97801 223.234 5.37901 223.234 5.82501H221.532C221.532 5.62901 221.482 5.44897 221.382 5.28497C221.286 5.11697 221.143 4.98202 220.951 4.88202C220.76 4.78202 220.527 4.73102 220.254 4.73102C219.867 4.73102 219.568 4.81803 219.358 4.99103C219.149 5.16403 219.044 5.38099 219.044 5.64099C219.044 5.80499 219.087 5.94398 219.174 6.05798C219.265 6.17198 219.42 6.27399 219.639 6.36499C219.857 6.45599 220.16 6.543 220.548 6.625C221.149 6.753 221.648 6.90803 222.045 7.09003C222.441 7.27203 222.747 7.50903 222.961 7.80103C223.175 8.09203 223.282 8.45702 223.282 8.89502C223.282 9.32702 223.157 9.71501 222.906 10.057C222.66 10.398 222.309 10.665 221.854 10.856C221.398 11.043 220.871 11.137 220.274 11.137C219.627 11.137 219.067 11.018 218.593 10.781C218.119 10.544 217.759 10.237 217.513 9.85797C217.267 9.47997 217.144 9.08099 217.144 8.66199H218.791C218.809 9.07699 218.962 9.382 219.249 9.578C219.541 9.774 219.892 9.87201 220.302 9.87201C220.716 9.87201 221.038 9.792 221.266 9.633C221.498 9.469 221.614 9.25197 221.614 8.98297C221.614 8.80997 221.573 8.662 221.491 8.539C221.409 8.416 221.252 8.30202 221.02 8.19702C220.792 8.09202 220.466 7.99697 220.042 7.90997ZM230.973 7.83502H226.153C226.185 8.21302 226.283 8.54803 226.447 8.84003C226.611 9.13203 226.832 9.35901 227.11 9.52301C227.393 9.68801 227.721 9.77002 228.095 9.77002C228.86 9.77002 229.476 9.469 229.94 8.867L230.85 9.74902C230.581 10.146 230.207 10.476 229.729 10.74C229.25 11.005 228.671 11.137 227.992 11.137C227.272 11.137 226.643 10.982 226.105 10.672C225.568 10.357 225.155 9.92902 224.868 9.38702C224.581 8.84402 224.438 8.23601 224.438 7.56201V7.28101C224.438 6.52001 224.583 5.85301 224.875 5.27802C225.167 4.70002 225.568 4.25299 226.078 3.93799C226.589 3.62399 227.163 3.46698 227.801 3.46698C228.498 3.46698 229.084 3.61899 229.558 3.92499C230.032 4.22999 230.385 4.65902 230.617 5.21002C230.854 5.75702 230.973 6.393 230.973 7.117V7.83502ZM229.291 6.47498C229.268 5.99598 229.138 5.60401 228.901 5.29901C228.664 4.98901 228.295 4.83398 227.794 4.83398C227.347 4.83398 226.987 4.98901 226.714 5.29901C226.44 5.60901 226.265 6.044 226.188 6.604H229.291V6.47498ZM235.566 3.46698C235.662 3.46698 235.769 3.47602 235.888 3.49402C236.011 3.51202 236.102 3.53303 236.161 3.55603L236.147 5.16199C235.92 5.12599 235.694 5.10699 235.471 5.10699C234.71 5.10699 234.199 5.39197 233.939 5.96198V11H232.237V3.604H233.857L233.905 4.43799C234.092 4.12799 234.325 3.88797 234.603 3.71997C234.881 3.55097 235.202 3.46698 235.566 3.46698ZM243.284 3.604L240.728 11H239.634H239.23L236.66 3.604H238.424L239.989 8.84698L241.521 3.604H243.284ZM250.564 7.83502H245.745C245.777 8.21302 245.875 8.54803 246.039 8.84003C246.203 9.13203 246.424 9.35901 246.702 9.52301C246.985 9.68801 247.313 9.77002 247.687 9.77002C248.452 9.77002 249.067 9.469 249.532 8.867L250.441 9.74902C250.173 10.146 249.799 10.476 249.32 10.74C248.842 11.005 248.263 11.137 247.584 11.137C246.864 11.137 246.235 10.982 245.697 10.672C245.16 10.357 244.747 9.92902 244.46 9.38702C244.173 8.84402 244.029 8.23601 244.029 7.56201V7.28101C244.029 6.52001 244.175 5.85301 244.467 5.27802C244.758 4.70002 245.16 4.25299 245.67 3.93799C246.18 3.62399 246.755 3.46698 247.393 3.46698C248.09 3.46698 248.675 3.61899 249.149 3.92499C249.623 4.22999 249.977 4.65902 250.209 5.21002C250.446 5.75702 250.564 6.393 250.564 7.117V7.83502ZM248.883 6.47498C248.86 5.99598 248.73 5.60401 248.493 5.29901C248.256 4.98901 247.887 4.83398 247.386 4.83398C246.939 4.83398 246.579 4.98901 246.306 5.29901C246.032 5.60901 245.857 6.044 245.779 6.604H248.883V6.47498ZM249.683 0.5L247.789 2.57098H246.422L247.755 0.5H249.683ZM254.386 7.90997C253.538 7.73197 252.884 7.47002 252.424 7.12402C251.964 6.77802 251.733 6.308 251.733 5.716C251.733 5.31 251.85 4.93697 252.082 4.59497C252.319 4.24797 252.654 3.97499 253.087 3.77399C253.524 3.56899 254.028 3.46698 254.598 3.46698C255.204 3.46698 255.73 3.56899 256.177 3.77399C256.628 3.97899 256.974 4.26201 257.216 4.62201C257.457 4.97801 257.578 5.37901 257.578 5.82501H255.876C255.876 5.62901 255.826 5.44897 255.726 5.28497C255.63 5.11697 255.486 4.98202 255.295 4.88202C255.104 4.78202 254.871 4.73102 254.598 4.73102C254.21 4.73102 253.912 4.81803 253.702 4.99103C253.493 5.16403 253.388 5.38099 253.388 5.64099C253.388 5.80499 253.431 5.94398 253.518 6.05798C253.609 6.17198 253.764 6.27399 253.982 6.36499C254.201 6.45599 254.504 6.543 254.892 6.625C255.493 6.753 255.992 6.90803 256.389 7.09003C256.785 7.27203 257.09 7.50903 257.305 7.80103C257.519 8.09203 257.626 8.45702 257.626 8.89502C257.626 9.32702 257.501 9.71501 257.25 10.057C257.004 10.398 256.653 10.665 256.197 10.856C255.742 11.043 255.215 11.137 254.618 11.137C253.971 11.137 253.41 11.018 252.937 10.781C252.463 10.544 252.103 10.237 251.856 9.85797C251.61 9.47997 251.487 9.08099 251.487 8.66199H253.135C253.153 9.07699 253.306 9.382 253.593 9.578C253.884 9.774 254.235 9.87201 254.646 9.87201C255.06 9.87201 255.382 9.792 255.609 9.633C255.842 9.469 255.958 9.25197 255.958 8.98297C255.958 8.80997 255.917 8.662 255.835 8.539C255.753 8.416 255.596 8.30202 255.363 8.19702C255.135 8.09202 254.81 7.99697 254.386 7.90997ZM260.128 9.20898C260.429 9.20898 260.668 9.29801 260.846 9.47601C261.023 9.65301 261.112 9.87898 261.112 10.152C261.112 10.421 261.023 10.645 260.846 10.822C260.668 10.995 260.429 11.082 260.128 11.082C259.823 11.082 259.581 10.995 259.403 10.822C259.226 10.645 259.137 10.421 259.137 10.152C259.137 9.87898 259.226 9.65301 259.403 9.47601C259.581 9.29801 259.823 9.20898 260.128 9.20898Z" fill="#8200C6"/>
</g>
<defs>
<clipPath id="clip0">
<rect width="262" height="12" fill="white"/>
</clipPath>
</defs>
</svg>
