<svg width="21" height="22" viewBox="0 0 21 22" fill="none" xmlns="http://www.w3.org/2000/svg">
<path d="M18.5285 12.0771C18.5735 11.7333 18.596 11.3781 18.596 11C18.596 10.6333 18.5735 10.2667 18.5172 9.92292L20.7999 8.1125C21.0022 7.95208 21.0585 7.64271 20.9348 7.41354L18.7759 3.60937C18.6409 3.35729 18.3598 3.27708 18.1124 3.35729L15.425 4.45729C14.8628 4.02187 14.2669 3.65521 13.6034 3.38021L13.1986 0.469791C13.1537 0.194791 12.9288 0 12.6589 0H8.34108C8.07121 0 7.85757 0.194791 7.81259 0.469791L7.4078 3.38021C6.74438 3.65521 6.13718 4.03333 5.58621 4.45729L2.8988 3.35729C2.65142 3.26562 2.37032 3.35729 2.23538 3.60937L0.0877065 7.41354C-0.047226 7.65417 -0.00224861 7.95208 0.222639 8.1125L2.50525 9.92292C2.44903 10.2667 2.40405 10.6448 2.40405 11C2.40405 11.3552 2.42654 11.7333 2.48276 12.0771L0.20015 13.8875C-0.0022486 14.0479 -0.0584703 14.3573 0.0652178 14.5865L2.22414 18.3906C2.35907 18.6427 2.64018 18.7229 2.88756 18.6427L5.57496 17.5427C6.13718 17.9781 6.73313 18.3448 7.39655 18.6198L7.80135 21.5302C7.85757 21.8052 8.07121 22 8.34108 22H12.6589C12.9288 22 13.1537 21.8052 13.1874 21.5302L13.5922 18.6198C14.2556 18.3448 14.8628 17.9781 15.4138 17.5427L18.1012 18.6427C18.3486 18.7344 18.6297 18.6427 18.7646 18.3906L20.9235 14.5865C21.0585 14.3344 21.0022 14.0479 20.7886 13.8875L18.5285 12.0771ZM10.5 15.125C8.27361 15.125 6.45202 13.2687 6.45202 11C6.45202 8.73125 8.27361 6.875 10.5 6.875C12.7264 6.875 14.548 8.73125 14.548 11C14.548 13.2687 12.7264 15.125 10.5 15.125Z" fill="#F2F2F2"/>
</svg>
