<svg width="42" height="42" viewBox="0 0 42 42" fill="none" xmlns="http://www.w3.org/2000/svg">
<path d="M21 11.6667C15.8433 11.6667 11.6667 15.8433 11.6667 21C11.6667 26.1567 15.8433 30.3333 21 30.3333C26.1567 30.3333 30.3333 26.1567 30.3333 21C30.3333 15.8433 26.1567 11.6667 21 11.6667ZM4.66667 28H0V37.3333C0 39.9 2.1 42 4.66667 42H14V37.3333H4.66667V28ZM4.66667 4.66667H14V0H4.66667C2.1 0 0 2.1 0 4.66667V14H4.66667V4.66667ZM37.3333 0H28V4.66667H37.3333V14H42V4.66667C42 2.1 39.9 0 37.3333 0ZM37.3333 37.3333H28V42H37.3333C39.9 42 42 39.9 42 37.3333V28H37.3333V37.3333Z" fill="white"/>
</svg>
