<svg width="60" height="88" viewBox="0 0 60 88" fill="none" xmlns="http://www.w3.org/2000/svg">
<path d="M30.5 59C46.7924 59 60 45.7924 60 29.5C60 13.2076 46.7924 0 30.5 0C14.2076 0 1 13.2076 1 29.5C1 45.7924 14.2076 59 30.5 59Z" fill="#F2F2F2" fill-opacity="0.2"/>
<path d="M7.29395 72.0469H8.73633L5.05176 82H4.02637L4.36816 80.4961L7.29395 72.0469ZM4.53906 80.4961L4.90137 82H3.87598L0.198242 72.0469H1.64062L4.53906 80.4961ZM12.9609 82.1367C12.2728 82.1367 11.6735 81.984 11.1631 81.6787C10.6572 81.3688 10.263 80.945 9.98047 80.4072C9.70247 79.8695 9.56348 79.2542 9.56348 78.5615V78.2676C9.56348 77.4655 9.71615 76.7819 10.0215 76.2168C10.3314 75.6471 10.7324 75.2142 11.2246 74.918C11.7214 74.6172 12.2454 74.4668 12.7969 74.4668C13.5078 74.4668 14.0866 74.6263 14.5332 74.9453C14.9844 75.2598 15.3148 75.6904 15.5244 76.2373C15.7386 76.7796 15.8457 77.3949 15.8457 78.083V78.6504H10.3223V77.625H14.5674V77.5293C14.5492 77.2012 14.4831 76.8822 14.3691 76.5723C14.2552 76.2578 14.0729 76.0003 13.8223 75.7998C13.5716 75.5947 13.2298 75.4922 12.7969 75.4922C12.4141 75.4922 12.0745 75.6016 11.7783 75.8203C11.4867 76.0345 11.2565 76.349 11.0879 76.7637C10.9238 77.1738 10.8418 77.6751 10.8418 78.2676V78.5615C10.8418 79.0309 10.9284 79.4593 11.1016 79.8467C11.2747 80.2295 11.5254 80.5371 11.8535 80.7695C12.1816 80.9974 12.5736 81.1113 13.0293 81.1113C13.4759 81.1113 13.8542 81.0202 14.1641 80.8379C14.474 80.6556 14.7451 80.4118 14.9775 80.1064L15.75 80.708C15.513 81.0726 15.1712 81.403 14.7246 81.6992C14.2826 81.9909 13.6947 82.1367 12.9609 82.1367ZM13.4805 71.5H15.0186L13.1797 73.5029H12.1543L13.4805 71.5ZM18.6006 82H17.3223V71.5H18.6006V82ZM17.7666 77.9941C17.7757 77.3197 17.9056 76.7181 18.1562 76.1895C18.4069 75.6562 18.7555 75.237 19.2021 74.9316C19.6533 74.6217 20.1774 74.4668 20.7744 74.4668C21.262 74.4668 21.6813 74.5579 22.0322 74.7402C22.3877 74.918 22.6611 75.2028 22.8525 75.5947C23.0485 75.9867 23.1465 76.5062 23.1465 77.1533V82H21.8682V77.1396C21.8682 76.7523 21.8112 76.4401 21.6973 76.2031C21.5879 75.9661 21.4238 75.7952 21.2051 75.6904C20.9863 75.5811 20.7174 75.5264 20.3984 75.5264C20.084 75.5264 19.7992 75.5924 19.5439 75.7246C19.2887 75.8568 19.0677 76.0391 18.8809 76.2715C18.694 76.5039 18.5505 76.7705 18.4502 77.0713C18.3499 77.3675 18.2998 77.682 18.2998 78.0146L17.7666 77.9941ZM26.4209 82H25.1426V74.6035H26.4209V82ZM25.0469 72.6348C25.0469 72.4342 25.1084 72.2633 25.2314 72.1221C25.359 71.9808 25.5459 71.9102 25.792 71.9102C26.0381 71.9102 26.2249 71.9808 26.3525 72.1221C26.4847 72.2633 26.5508 72.4342 26.5508 72.6348C26.5508 72.8307 26.4847 72.9993 26.3525 73.1406C26.2249 73.2773 26.0381 73.3457 25.792 73.3457C25.5459 73.3457 25.359 73.2773 25.2314 73.1406C25.1084 72.9993 25.0469 72.8307 25.0469 72.6348ZM31.4043 81.1113C31.7051 81.1113 31.9831 81.0498 32.2383 80.9268C32.4935 80.7992 32.7031 80.626 32.8672 80.4072C33.0312 80.1885 33.1247 79.9401 33.1475 79.6621H34.3574C34.3346 80.0996 34.1865 80.5075 33.9131 80.8857C33.6396 81.2594 33.2842 81.5625 32.8467 81.7949C32.4092 82.0228 31.9284 82.1367 31.4043 82.1367C30.6615 82.1367 30.0462 81.9681 29.5586 81.6309C29.071 81.2891 28.7064 80.8379 28.4648 80.2773C28.2279 79.7168 28.1094 79.1061 28.1094 78.4453V78.1582C28.1094 77.4928 28.2301 76.8822 28.4717 76.3262C28.7132 75.7656 29.0778 75.3167 29.5654 74.9795C30.0531 74.6377 30.666 74.4668 31.4043 74.4668C31.9831 74.4668 32.4889 74.5853 32.9219 74.8223C33.3594 75.0547 33.7012 75.3737 33.9473 75.7793C34.1979 76.1803 34.3346 76.6361 34.3574 77.1465H33.1475C33.1247 76.8411 33.0381 76.5632 32.8877 76.3125C32.7419 76.0618 32.5413 75.8636 32.2861 75.7178C32.0355 75.5674 31.7415 75.4922 31.4043 75.4922C30.8893 75.4922 30.4837 75.6243 30.1875 75.8887C29.8958 76.153 29.6885 76.4902 29.5654 76.9004C29.4469 77.306 29.3877 77.7253 29.3877 78.1582V78.4453C29.3877 78.8783 29.4469 79.2998 29.5654 79.71C29.6839 80.1201 29.889 80.4574 30.1807 80.7217C30.4769 80.9814 30.8848 81.1113 31.4043 81.1113ZM40.3047 74.6035H41.583V82H40.3662L40.3047 80.291V74.6035ZM41.0771 78.7188C41.0771 79.375 40.9837 79.9606 40.7969 80.4756C40.61 80.9906 40.3047 81.3962 39.8809 81.6924C39.457 81.9886 38.8896 82.1367 38.1787 82.1367C37.4541 82.1367 36.8685 81.9225 36.4219 81.4941C35.9753 81.0658 35.752 80.3594 35.752 79.375V74.6035H37.0303V79.3887C37.0303 79.8353 37.0941 80.1816 37.2217 80.4277C37.3538 80.6693 37.5225 80.8379 37.7275 80.9336C37.9372 81.0247 38.1559 81.0703 38.3838 81.0703C38.9215 81.0703 39.3477 80.9678 39.6621 80.7627C39.9766 80.5531 40.2021 80.2705 40.3389 79.915C40.4756 79.5596 40.5439 79.1654 40.5439 78.7324L41.0771 78.7188ZM44.8916 82H43.6133V71.5H44.8916V82ZM49.9844 82.1367C49.2962 82.1367 48.6969 81.984 48.1865 81.6787C47.6807 81.3688 47.2865 80.945 47.0039 80.4072C46.7259 79.8695 46.5869 79.2542 46.5869 78.5615V78.2676C46.5869 77.4655 46.7396 76.7819 47.0449 76.2168C47.3548 75.6471 47.7559 75.2142 48.248 74.918C48.7448 74.6172 49.2689 74.4668 49.8203 74.4668C50.5312 74.4668 51.11 74.6263 51.5566 74.9453C52.0078 75.2598 52.3382 75.6904 52.5479 76.2373C52.762 76.7796 52.8691 77.3949 52.8691 78.083V78.6504H47.3457V77.625H51.5908V77.5293C51.5726 77.2012 51.5065 76.8822 51.3926 76.5723C51.2786 76.2578 51.0964 76.0003 50.8457 75.7998C50.5951 75.5947 50.2533 75.4922 49.8203 75.4922C49.4375 75.4922 49.098 75.6016 48.8018 75.8203C48.5101 76.0345 48.2799 76.349 48.1113 76.7637C47.9473 77.1738 47.8652 77.6751 47.8652 78.2676V78.5615C47.8652 79.0309 47.9518 79.4593 48.125 79.8467C48.2982 80.2295 48.5488 80.5371 48.877 80.7695C49.2051 80.9974 49.597 81.1113 50.0527 81.1113C50.4993 81.1113 50.8776 81.0202 51.1875 80.8379C51.4974 80.6556 51.7686 80.4118 52.001 80.1064L52.7734 80.708C52.5365 81.0726 52.1947 81.403 51.748 81.6992C51.306 81.9909 50.7181 82.1367 49.9844 82.1367ZM58.6523 80.0381C58.6523 79.8558 58.6113 79.6872 58.5293 79.5322C58.4518 79.3727 58.2923 79.2292 58.0508 79.1016C57.8092 78.9694 57.4447 78.8532 56.957 78.7529C56.4102 78.639 55.9362 78.4954 55.5352 78.3223C55.1387 78.1445 54.8311 77.9189 54.6123 77.6455C54.3981 77.3721 54.291 77.0326 54.291 76.627C54.291 76.235 54.4027 75.8773 54.626 75.5537C54.8538 75.2256 55.1729 74.9635 55.583 74.7676C55.9977 74.5671 56.4808 74.4668 57.0322 74.4668C57.6247 74.4668 58.1305 74.5716 58.5498 74.7812C58.9736 74.9863 59.2972 75.2643 59.5205 75.6152C59.7438 75.9616 59.8555 76.3467 59.8555 76.7705H58.5771C58.5771 76.4652 58.4427 76.1758 58.1738 75.9023C57.9095 75.6289 57.529 75.4922 57.0322 75.4922C56.6859 75.4922 56.4033 75.5469 56.1846 75.6562C55.9704 75.7611 55.8132 75.8978 55.7129 76.0664C55.6172 76.2305 55.5693 76.4036 55.5693 76.5859C55.5693 76.7682 55.6149 76.9277 55.7061 77.0645C55.7972 77.1966 55.9635 77.3151 56.2051 77.4199C56.4512 77.5247 56.8066 77.6296 57.2715 77.7344C57.8776 77.8711 58.3766 78.0352 58.7686 78.2266C59.1605 78.418 59.4521 78.6527 59.6436 78.9307C59.835 79.2087 59.9307 79.5482 59.9307 79.9492C59.9307 80.3776 59.8122 80.7581 59.5752 81.0908C59.3382 81.4189 59.0055 81.6764 58.5771 81.8633C58.1488 82.0456 57.6452 82.1367 57.0664 82.1367C56.4147 82.1367 55.8633 82.0205 55.4121 81.7881C54.9609 81.5557 54.6191 81.2572 54.3867 80.8926C54.1543 80.5234 54.0381 80.1338 54.0381 79.7236H55.3164C55.3392 80.07 55.4395 80.3457 55.6172 80.5508C55.7995 80.7513 56.0205 80.8949 56.2803 80.9814C56.5446 81.068 56.8066 81.1113 57.0664 81.1113C57.4128 81.1113 57.7021 81.0658 57.9346 80.9746C58.1715 80.8789 58.3493 80.7513 58.4678 80.5918C58.5908 80.4277 58.6523 80.2432 58.6523 80.0381Z" fill="#F2F2F2" fill-opacity="0.2"/>
<path d="M27.2654 26.1558C26.715 26.1558 26.2471 25.6879 26.2471 25.1375C26.2471 24.587 26.715 24.1191 27.2654 24.1191C27.8159 24.1191 28.2838 24.587 28.2838 25.1375C28.2838 25.6879 27.8434 26.1558 27.2654 26.1558Z" fill="#F2F2F2"/>
<path d="M33.6512 26.1282C33.1007 26.1282 32.6328 25.6604 32.6328 25.1099C32.6328 24.5594 33.1007 24.0916 33.6512 24.0916C34.2016 24.0916 34.6695 24.5594 34.6695 25.1099C34.6695 25.6879 34.2291 26.1282 33.6512 26.1282Z" fill="#F2F2F2"/>
<path d="M34.3937 34.6879H26.5496C26.3845 34.6879 26.2744 34.5778 26.2744 34.4127C26.2744 34.2475 26.3845 34.1375 26.5496 34.1375H34.3937C34.5588 34.1375 34.6689 34.2475 34.6689 34.4127C34.6689 34.5778 34.5313 34.6879 34.3937 34.6879Z" fill="#F2F2F2"/>
<path d="M34.3937 37.413H26.5496C26.3845 37.413 26.2744 37.3029 26.2744 37.1378C26.2744 36.9726 26.3845 36.8625 26.5496 36.8625H34.3937C34.5588 36.8625 34.6689 36.9726 34.6689 37.1378C34.6689 37.3029 34.5313 37.413 34.3937 37.413Z" fill="#F2F2F2"/>
<path d="M34.3937 31.9909H26.5496C26.3845 31.9909 26.2744 31.8808 26.2744 31.7157C26.2744 31.5505 26.3845 31.4404 26.5496 31.4404H34.3937C34.5588 31.4404 34.6689 31.5505 34.6689 31.7157C34.6689 31.8808 34.5313 31.9909 34.3937 31.9909Z" fill="#F2F2F2"/>
<path d="M34.3937 29.2658H26.5496C26.3845 29.2658 26.2744 29.1557 26.2744 28.9906C26.2744 28.8254 26.3845 28.7153 26.5496 28.7153H34.3937C34.5588 28.7153 34.6689 28.8254 34.6689 28.9906C34.6689 29.1557 34.5313 29.2658 34.3937 29.2658Z" fill="#F2F2F2"/>
<path d="M40.7243 46.8531C39.2931 46.8531 38.1372 45.6972 38.1372 44.266V40.688H22.8895V44.266C22.8895 45.6972 21.7335 46.8531 20.3023 46.8531H15.1555C13.7243 46.8531 12.5684 45.6972 12.5684 44.266V26.6513C12.5684 25.2201 13.7243 24.0641 15.1555 24.0641H20.3023C20.7977 24.0641 21.2656 24.2017 21.706 24.477L22.0362 24.6972V23.954C22.0362 23.2109 22.284 22.5228 22.7243 21.9173L22.7518 21.8623L23.8803 15.2293C24.1005 13.9082 25.2014 12.8898 26.5225 12.7522H34.4491C35.7977 12.8898 36.8711 13.8806 37.0913 15.2293L38.2197 21.8623L38.2473 21.9173C38.6876 22.5228 38.9353 23.2109 38.9353 23.954V24.6972L39.2656 24.477C39.6785 24.2017 40.1739 24.0641 40.6693 24.0641H45.8161C47.2473 24.0641 48.4032 25.2201 48.4032 26.6513V44.266C48.4032 45.6972 47.2473 46.8531 45.8161 46.8531H40.7243ZM40.7243 24.9173C39.761 24.9173 38.9904 25.688 38.9904 26.6513V44.266C38.9904 45.2293 39.761 45.9999 40.7243 45.9999H45.8711C46.8344 45.9999 47.6051 45.2293 47.6051 44.266V26.6513C47.6051 25.688 46.8344 24.9173 45.8711 24.9173H40.7243ZM15.1555 24.9173C14.1922 24.9173 13.4216 25.688 13.4216 26.6513V44.266C13.4216 45.2293 14.1922 45.9999 15.1555 45.9999H20.3023C21.2656 45.9999 22.0362 45.2293 22.0362 44.266V26.6513C22.0362 25.688 21.2656 24.9173 20.3023 24.9173H15.1555ZM38.1372 39.8623V23.954C38.1372 22.5228 36.9812 21.3669 35.55 21.3669H25.4766C24.0454 21.3669 22.8895 22.5228 22.8895 23.954V39.8348H38.1372V39.8623ZM26.8252 13.5779C25.7794 13.5779 24.8986 14.321 24.706 15.3669L23.7427 20.954L24.128 20.7889C24.5408 20.6238 25.0087 20.5137 25.4491 20.5137H35.5225C35.9904 20.5137 36.4307 20.5962 36.8436 20.7889L37.2289 20.954L36.2656 15.3669C36.1005 14.3485 35.1922 13.5779 34.1463 13.5779H26.8252Z" fill="#F2F2F2"/>
</svg>
